<svg xmlns="http://www.w3.org/2000/svg" width="33.228" height="33.228" viewBox="0 0 33.228 33.228"><defs><style>.a{fill:#213342;}</style></defs><path class="a" d="M16.614,2A16.614,16.614,0,1,0,33.228,18.614,16.614,16.614,0,0,0,16.614,2Zm9.4,22.152a26.422,26.422,0,0,0,.545-4.43h4.412a14.25,14.25,0,0,1-1.062,4.43ZM7.214,13.076a26.422,26.422,0,0,0-.545,4.43H2.257a14.25,14.25,0,0,1,1.062-4.43H7.214Zm16.532,0a23.9,23.9,0,0,1,.6,4.43H17.722v-4.43Zm-6.024-2.215V4.377a5.047,5.047,0,0,1,1.5.74,9.511,9.511,0,0,1,2.545,2.89A16.036,16.036,0,0,1,23.1,10.862H17.722ZM11.465,8.005a9.511,9.511,0,0,1,2.545-2.89,5.047,5.047,0,0,1,1.5-.74V10.86H10.132A16.036,16.036,0,0,1,11.465,8Zm4.042,5.071v4.43H8.884a23.9,23.9,0,0,1,.6-4.43ZM3.319,24.152a14.281,14.281,0,0,1-1.062-4.43H6.669a26.422,26.422,0,0,0,.545,4.43Zm5.565-4.43h6.622v4.43H9.482A23.9,23.9,0,0,1,8.884,19.722Zm6.622,6.646v6.484a5.047,5.047,0,0,1-1.5-.74,9.512,9.512,0,0,1-2.545-2.89,16.036,16.036,0,0,1-1.332-2.855h5.374Zm6.257,2.855a9.512,9.512,0,0,1-2.545,2.89,5.074,5.074,0,0,1-1.5.74V26.368H23.1a16.072,16.072,0,0,1-1.332,2.855Zm-4.042-5.071v-4.43h6.622a23.9,23.9,0,0,1-.6,4.43H17.722Zm8.839-6.646a26.421,26.421,0,0,0-.545-4.43H29.91a14.251,14.251,0,0,1,1.062,4.43Zm2.191-6.646H25.432A17.563,17.563,0,0,0,22.824,5.62a14.506,14.506,0,0,1,5.927,5.241ZM6.433,8.433A14.37,14.37,0,0,1,10.4,5.62,17.589,17.589,0,0,0,7.8,10.861H4.477A14.366,14.366,0,0,1,6.433,8.433ZM4.477,26.367H7.8A17.589,17.589,0,0,0,10.4,31.608a14.506,14.506,0,0,1-5.927-5.241Zm22.318,2.428a14.37,14.37,0,0,1-3.971,2.813,17.589,17.589,0,0,0,2.607-5.241h3.319a14.366,14.366,0,0,1-1.956,2.428Z" transform="translate(0 -2)"/></svg>