<svg xmlns="http://www.w3.org/2000/svg" width="39.283" height="39.473" viewBox="0 0 39.283 39.473"><defs><style>.a{fill:#213342;}</style></defs><path class="a" d="M164.937,209.062a15.3,15.3,0,1,1,10.828-4.477A15.261,15.261,0,0,1,164.937,209.062Zm0-28.576a13.265,13.265,0,1,0,9.39,3.881A13.242,13.242,0,0,0,164.937,180.485Z" transform="translate(-149.624 -178.451)"/><g transform="translate(23.976 24.101)"><rect class="a" width="2.034" height="3.185" transform="matrix(0.707, -0.707, 0.707, 0.707, 0, 1.438)"/></g><g transform="translate(35.599 35.788)"><rect class="a" width="2.034" height="3.177" transform="translate(0 1.438) rotate(-45.013)"/></g><g transform="translate(25.236 25.426)"><path class="a" d="M170.781,203.824l-6.935-6.934-1.3-5.517,5.519,1.3L175,199.6l-.456,3.765Zm-5.088-7.964,5.826,5.824,1.2-.144.146-1.2-5.824-5.826-1.758-.413Z" transform="translate(-162.549 -191.373)"/></g><g transform="translate(6.305 6.72)"><g transform="translate(0 2.76)"><path class="a" d="M161.805,197.142a1.038,1.038,0,0,1-.358-.063l-7.915-2.968a1.019,1.019,0,0,1-.659-.954v-8.9a1.016,1.016,0,0,1,1.373-.952l7.915,2.968a1.019,1.019,0,0,1,.661.952v8.9a1.017,1.017,0,0,1-.439.836A1.006,1.006,0,0,1,161.805,197.142Zm-6.9-4.689,5.881,2.205v-6.731l-5.881-2.205Z" transform="translate(-152.873 -183.236)"/></g><g transform="translate(7.915 2.966)"><path class="a" d="M157.781,197.037a1.017,1.017,0,0,1-1.017-1.017v-8.9a1.013,1.013,0,0,1,.663-.952l7.461-2.762a1,1,0,0,1,.934.12,1.014,1.014,0,0,1,.435.834v8.625a1.018,1.018,0,0,1-.633.942l-7.461,3.039A.993.993,0,0,1,157.781,197.037Zm1.017-9.213v6.684l5.425-2.211v-6.481Z" transform="translate(-156.764 -183.337)"/></g><path class="a" d="M161.805,189.641a1.022,1.022,0,0,1-.358-.063l-7.915-2.968a1.017,1.017,0,0,1,0-1.906L161,181.942a1.015,1.015,0,0,1,.71,0l7.915,2.968a1.017,1.017,0,0,1-.006,1.906l-7.459,2.76A1,1,0,0,1,161.805,189.641Zm-5-3.979,5,1.878,4.544-1.682-5-1.876Z" transform="translate(-152.873 -181.879)"/></g></svg>